<svg width="42" height="42" viewBox="0 0 42 42" fill="none" xmlns="http://www.w3.org/2000/svg">
<circle cx="20.5" cy="20.5" r="20.5" transform="matrix(0.999999 -0.00170675 0.00203971 0.999998 0.12207 0.818573)" fill="#191A23"/>
<path d="M11.4224 25.5002C10.7058 25.9157 10.4619 26.8335 10.8775 27.5502C11.2932 28.267 12.2111 28.5112 12.9277 28.0958L11.4224 25.5002ZM30.9248 17.1542C31.1376 16.3537 30.661 15.532 29.8604 15.3189L16.8133 11.8471C16.0127 11.6341 15.1911 12.1104 14.9783 12.9109C14.7656 13.7115 15.2421 14.5332 16.0428 14.7462L27.6402 17.8323L24.558 29.4286C24.3452 30.2292 24.8218 31.0509 25.6224 31.2639C26.423 31.477 27.2446 31.0007 27.4574 30.2002L30.9248 17.1542ZM12.9277 28.0958L30.2278 18.0662L28.7225 15.4707L11.4224 25.5002L12.9277 28.0958Z" fill="#FF6537"/>
</svg>
